<svg xmlns="http://www.w3.org/2000/svg" width="526" height="636" viewBox="0 0 526 636">
  <path fill="#2500FF" d="M274.381671,625.253455 C262.045446,619.342719 243.085567,612.500107 232.248632,610.047803 C211.161259,605.275345 156.827035,579.022059 129.616646,560.458111 C77.7966905,525.10473 37.5653387,450.677959 8.88735707,337.113764 C1.45033645,307.663626 -0.0439795068,295.722195 0.000971215856,266.109115 C0.0993538135,203.4109 12.3318743,139.183469 30.7587503,104.620071 C45.791776,76.422448 93.9071486,35.2472956 134.140013,16.1505845 C161.571773,3.12993554 183.563183,-0.0960033924 244.208665,0.00215345778 C301.536665,0.0990910839 329.11665,4.23415393 363.151023,17.8362716 C376.324402,23.1011658 401.641028,30.0258617 419.41021,33.224689 C458.064868,40.1832403 474.473297,46.8516704 488.115595,61.1467004 C500.254148,73.8660565 499.585954,83.0594068 486.874082,78.2275488 C474.328042,73.4587695 471.857763,74.7318563 478.970219,82.3007591 C486.773034,90.6043315 491.48617,105.328174 491.48617,121.400512 C491.48617,127.738494 493.062203,135.868294 494.988495,139.466574 C496.914752,143.064923 499.533699,157.4481 500.808355,171.429303 C502.510523,190.099926 504.778087,198.916711 509.348346,204.634873 C523.920832,222.866942 525.87273,229.436803 525.996383,260.656824 C526.08416,284.601265 524.599431,295.457551 518.776409,313.415643 C510.231158,339.769746 508.952646,374.781166 515.312473,408.274201 C519.881893,432.338124 518.355676,498.089867 512.810633,516.057088 C510.909245,522.218504 503.637144,535.780431 496.65038,546.196596 C484.888742,563.729894 481.712168,566.253044 453.791435,580.227775 C437.205741,588.53019 417.664734,599.726324 410.366972,605.109133 C403.069217,610.491942 394.210378,614.895873 390.680642,614.895873 C387.150905,614.895873 374.352329,619.644489 362.239355,625.447596 C343.366773,634.489789 337.11074,636 318.513453,636 C299.841371,636 293.679388,634.499326 274.381671,625.253455 L274.381671,625.253455 Z M343.073688,618.363841 C346.863095,617.284827 351.647672,613.011685 353.70611,608.865928 C356.986334,602.259691 359.965781,601.112557 377.824469,599.573055 C389.03115,598.606438 399.666065,596.350999 401.45765,594.559454 C406.237587,589.780865 401.815983,584.748191 392.837769,584.748191 C388.534001,584.748191 376.612929,580.051346 366.346513,574.312271 C349.522352,564.905638 346.690306,561.856606 337.64779,543.410505 C320.516637,508.463798 285.179169,479.806572 241.923576,465.781432 C223.008777,459.648626 223.744542,453.553967 243.079844,456.203819 C260.08837,458.53419 280.744823,469.122697 305.928806,488.420293 C317.024874,496.922298 326.522805,503.420906 327.035299,502.8596 C327.547758,502.30102 329.526502,489.974782 331.432469,475.472123 C333.338428,460.969465 338.91897,436.043148 343.833676,420.081368 C355.050633,383.650336 356.068575,342.9339 346.64787,307.515806 C339.780796,281.698009 340.839566,270.426875 352.11307,249.336236 C356.327489,241.451599 358.971429,234.196795 357.988475,233.213966 C357.005515,232.231477 349.255806,232.915602 340.766857,234.736439 C322.023014,238.755221 268.538685,239.036487 262.389464,235.148562 C254.190254,229.964594 262.227842,227.900979 288.734593,228.384833 C303.221697,228.650499 322.538349,227.37966 331.660476,225.563252 C351.989401,221.516267 380.075202,207.62975 385.238329,199.073114 C388.673076,193.380837 388.216039,192.415855 380.714969,189.521591 C349.317205,177.407 340.720149,166.749692 340.711884,139.931286 C340.705854,115.724721 354.405272,95.6953164 384.423525,76.0289212 C397.686797,67.3395195 408.969281,58.9382636 409.495681,57.3593199 C411.042463,52.7203084 390.023602,50.1933445 364.459781,51.9450395 C341.487946,53.5191467 340.70721,53.3541611 340.70721,46.9237409 C340.70721,43.2668094 342.217388,38.7649907 344.063162,36.9196994 C355.833297,25.152587 324.081539,17.6413815 254.600167,15.7563765 C193.280475,14.092692 169.297988,16.8238784 158.337384,26.7190648 C154.980259,29.7498412 147.923076,33.0362022 142.6548,34.0220968 C126.029375,37.1331862 106.941841,47.8349084 84.8310682,66.4418397 C44.8035419,100.126427 34.4873585,119.64037 22.0029555,185.286733 C16.8316588,212.478775 14.4352682,236.0177 14.1765038,262.164174 C13.8437219,295.790655 14.8293259,303.592118 23.3282163,334.600832 C49.5330237,430.21075 81.400819,497.036739 117.946475,533.014095 C132.961922,547.796043 186.809401,575.581339 232.146344,591.940937 C247.902741,597.626197 269.614918,606.472887 280.395613,611.599567 C295.983078,619.012339 303.701927,620.860423 318.090362,620.623367 C328.04178,620.45988 339.284281,619.442174 343.073688,618.363841 L343.073688,618.363841 Z M242.570927,559.48945 C207.284364,548.080102 204.729929,546.768119 206.882634,541.159834 C208.13693,537.891456 213.941561,539.590359 232.97774,548.793314 C246.442848,555.302821 261.2633,560.629772 265.912087,560.629772 C271.414911,560.629772 274.364453,562.207422 274.364453,565.152231 C274.364453,567.638596 274.025198,569.585453 273.610563,569.477824 C273.195948,569.368833 259.228084,564.875666 242.570927,559.48945 L242.570927,559.48945 Z M128.10886,494.303781 C124.861497,489.05108 129.674815,484.568812 134.375291,488.469339 C136.697228,490.396442 137.853338,493.17504 136.944416,494.645741 C134.744608,498.203627 130.416379,498.036053 128.10886,494.298331 L128.10886,494.303781 Z M92.7135287,422.800702 C87.6946685,408.673382 85.544948,398.477243 87.2299935,396.792646 C89.9452523,394.078762 92.7066468,399.303534 105.699905,431.746846 C111.066163,445.145967 111.09846,446.066263 106.201871,446.052117 C102.405651,446.052117 98.7017694,439.657573 92.7134878,422.800702 L92.7135287,422.800702 Z M272.856666,411.319147 C266.222383,407.234697 259.437333,403.392752 257.778765,402.781038 C256.120198,402.174774 255.685592,400.675462 256.812935,399.459528 C258.683382,397.441826 286.426767,414.409732 286.426767,417.571162 C286.426767,419.5984 285.937951,419.372924 272.856666,411.319147 L272.856666,411.319147 Z M244.962555,266.197126 C239.711892,264.078947 240.239219,259.149474 245.716452,259.149474 C248.204303,259.149474 250.239818,261.18441 250.239818,263.671592 C250.239818,266.158843 249.900564,268.086831 249.485922,267.955633 C249.071307,267.825524 247.035764,267.033498 244.962555,266.197126 L244.962555,266.197126 Z M168.670717,212.574959 C154.332336,207.293308 123.56809,189.79148 116.893525,183.118895 C113.939827,180.165911 108.809153,177.749778 105.492012,177.749778 C97.0965466,177.749778 97.952615,173.470642 108.507592,162.6758 C114.489326,156.558117 117.554332,150.361552 117.554332,144.386238 C117.554332,118.352979 144.92855,85.5045591 172.897872,77.9751657 C179.86168,76.1004468 193.772616,75.6572608 206.937852,76.8906339 C225.102577,78.5923291 231.27686,80.598042 240.474524,87.7846577 C271.932427,112.36445 277.451141,168.433131 251.014006,194.863596 C232.736644,213.136333 223.937275,216.941901 200.482756,216.718537 C188.872778,216.606821 174.557338,214.743206 168.670717,212.574959 L168.670717,212.574959 Z M227.561518,194.97395 C234.161984,191.236569 242.713961,182.77966 246.565931,176.180848 C252.517821,165.984845 253.335521,161.342632 252.011262,145.267161 C248.85196,106.915565 232.887057,92.3304135 194.06688,92.3304135 C168.953732,92.3304135 156.416461,98.6192131 142.860261,118.016195 C120.073785,150.620202 131.139423,186.789655 166.69461,195.921834 C173.668108,197.712629 180.730721,199.676381 182.389282,200.285165 C192.528138,204.006879 216.608484,201.175693 227.561518,194.97395 L227.561518,194.97395 Z M150.83179,177.94787 C146.292615,169.468413 147.007701,155.975695 152.404477,148.272597 C155.994706,143.148165 160.092604,141.572082 169.826984,141.572082 C196.144518,141.572082 203.919342,158.078819 185.299917,174.422613 C172.515431,185.644701 155.863733,187.347759 150.83179,177.94787 Z M54.2271626,118.107816 C54.2271626,113.773776 87.0539407,84.2909407 91.8795981,84.2909407 C94.0768714,84.2909407 101.491965,79.5989322 108.357567,73.8644216 C124.237395,60.6005857 185.263007,40.5376665 200.840885,43.4593834 C210.153878,45.2060376 216.345311,49.8412344 213.356604,52.8291635 C212.641484,53.5438741 201.708019,56.7749901 189.060046,60.0089672 C157.260313,68.1399246 136.428542,79.0384443 113.079057,99.7600117 C95.5270277,115.336575 91.6251398,117.458637 80.4693364,117.494876 C73.4997026,117.515312 64.7439963,118.354068 61.0122197,119.353928 C57.2339327,120.366185 54.2271626,119.813735 54.2271626,118.107816 L54.2271626,118.107816 Z M452.762394,566.475795 C470.2893,557.279651 482.717674,544.223171 492.134815,525.113586 C501.813051,505.47403 502.064164,503.958369 503.061773,459.141135 C503.878758,422.439668 503.052915,409.768064 498.922618,395.75246 C491.563281,370.768923 492.405735,352.038082 502.357003,319.396542 C509.39087,296.324849 511.075132,285.179532 511.080671,261.668945 C511.086654,234.085011 510.599296,231.83686 501.923269,219.461645 C484.927076,195.219044 452.058135,181.124899 425.982454,186.898782 C398.161209,193.058972 361.313664,253.929062 361.313664,293.727926 C361.313664,301.109092 362.160009,308.517845 363.19442,310.191543 C364.228817,311.865241 366.342322,324.340661 367.891032,337.916212 C371.353095,368.263485 367.918287,395.110774 355.692171,433.268638 C348.321189,456.273301 346.73837,466.340694 346.73837,490.221375 C346.73837,506.176343 348.382703,524.71713 350.392463,531.423502 C355.224117,547.545363 370.54924,562.392026 388.215671,568.064343 C404.586835,573.321131 441.444437,572.414459 452.762394,566.475795 L452.762394,566.475795 Z M398.544909,537.470477 C382.307519,529.471195 373.673764,515.401096 370.733033,492.145753 C368.054507,470.963969 371.286852,427.259128 377.150912,405.366858 C378.927568,398.734054 381.334602,364.704918 382.499918,329.745269 L384.618656,266.182616 L394.423818,246.270786 C410.12627,214.382921 428.250951,203.630995 454.425397,210.67742 C472.590244,215.567453 480.856917,223.751748 488.819554,244.729308 C499.821409,273.713917 498.947918,304.481079 486.208906,336.683248 C474.277682,366.843873 473.12754,393.917319 482.400257,426.334064 C487.541247,444.306734 487.945906,450.085318 485.249413,467.023933 C480.99099,493.774492 463.808973,529.058391 451.339431,536.659854 C439.299193,543.999058 412.628662,544.409138 398.544909,537.470477 L398.544909,537.470477 Z M442.633785,523.849286 C444.624064,521.858832 446.252481,519.273013 446.252481,518.102719 C446.252481,514.501236 418.703151,506.36299 406.512759,506.36299 C397.110118,506.36299 394.987639,507.442004 394.987639,512.221955 C394.987639,515.444011 398.003614,520.192627 401.689793,522.772997 C409.678575,528.367658 437.385984,529.095856 442.633785,523.849286 L442.633785,523.849286 Z M440.221321,489.782003 C440.221321,478.762299 436.20189,475.66967 432.936621,484.176443 C430.653978,490.123964 433.480151,500.333045 437.408967,500.333045 C438.955748,500.333045 440.221321,495.585791 440.221321,489.782003 Z M398.003219,486.494552 C398.003219,478.258214 390.390173,473.576355 385.28993,478.674425 C382.952103,481.011607 383.473918,484.139659 387.132903,489.722739 C393.033997,498.726785 398.003219,497.250634 398.003219,486.494552 L398.003219,486.494552 Z M463.861895,489.639633 C468.941432,478.493908 468.255597,476.214627 459.822588,476.214627 C453.55491,476.214627 452.283641,477.655356 452.283641,484.756822 C452.283641,499.077601 458.387504,501.65184 463.861895,489.639633 L463.861895,489.639633 Z M420.62006,485.259544 C420.62006,476.996639 413.905123,473.574312 411.252285,480.486405 C408.756352,486.989101 412.229126,495.089881 416.852184,493.549016 C418.924515,492.859646 420.62006,489.128055 420.62006,485.259544 L420.62006,485.259544 Z M455.299215,460.940173 C455.299215,454.046472 439.110808,437.022708 426.964781,431.144669 C412.565873,424.176717 394.310097,423.037077 389.519612,428.807486 C387.764576,430.921237 385.388088,439.739316 384.238485,448.403446 L382.14833,464.155417 L418.723776,464.155417 C442.622174,464.155417 455.299215,463.040981 455.299215,460.940173 Z M470.30613,446.820347 C470.267292,442.260422 467.493163,428.355172 464.141857,415.919262 C456.532347,387.681652 458.317568,366.21581 470.911502,334.519089 C475.85274,322.083178 480.128687,306.481751 480.413596,299.849152 L480.931643,287.790079 L440.221321,287.790079 L399.511006,287.790079 L397.193988,342.05652 C395.919598,371.903114 394.562592,400.355981 394.178415,405.285114 C393.504743,413.927445 394.048682,414.330713 409.45268,416.586152 C430.55706,419.676057 440.345208,425.091563 454.285348,441.389173 C460.647947,448.82715 466.871507,454.958593 468.115425,455.013524 C469.359358,455.087339 470.34518,451.380271 470.30613,446.820347 L470.30613,446.820347 Z M414.416772,271.486952 C415.347171,269.981918 415.000707,265.756937 413.646863,262.098234 C411.338314,255.859367 410.869367,255.761683 406.102063,260.527806 C403.306266,263.32282 401.018799,267.547801 401.018799,269.916455 C401.018799,274.63285 411.698263,275.884547 414.416772,271.486952 L414.416772,271.486952 Z M439.658501,264.657487 C438.474032,252.667283 433.468479,250.738409 428.349893,260.300218 C423.742363,268.907127 426.113209,274.223452 434.559212,274.223452 C439.536433,274.223452 440.436634,272.534563 439.658501,264.657487 L439.658501,264.657487 Z M458.314795,268.371707 C458.314795,265.153398 457.099978,261.769353 455.615187,260.851851 C452.374645,258.849748 448.535662,267.584858 450.944031,271.480549 C453.915063,276.286725 458.314795,274.430876 458.314795,268.371707 Z M479.876191,269.701265 C479.876191,268.126 478.417409,266.350872 476.634437,265.756937 C474.851478,265.162934 473.392696,266.937586 473.392696,269.701265 C473.392696,272.464945 474.851478,274.239664 476.634437,273.645525 C478.417409,273.051522 479.876191,271.276462 479.876191,269.701265 Z M470.377116,241.016314 C470.377116,233.419891 453.958644,222.998345 441.966559,222.983018 C432.755567,222.983018 422.127854,230.299878 422.127854,236.663541 C422.127854,238.829063 429.353301,241.613859 439.467431,243.34614 C467.232136,248.101977 470.377116,247.864716 470.377116,241.016314 Z M485.45501,169.961666 C485.45501,163.00836 484.188497,159.580515 481.900969,160.342909 C472.017559,163.636627 471.125187,180.764614 480.837014,180.764614 C484.124809,180.764614 485.45501,177.652708 485.45501,169.961666 Z M452.930147,166.863656 C465.471581,160.380034 477.052465,134.418164 475.824191,115.540185 C474.710141,98.4183966 470.461306,96.0842111 464.345962,109.234355 C460.831959,116.790656 457.666722,119.169664 450.161305,119.89541 C428.652688,121.97551 421.618821,108.027004 436.398895,92.6039136 C443.307948,85.3942054 443.916767,83.5491185 440.168371,81.1795789 C433.331598,76.8578003 414.171096,77.7272105 401.675832,82.9261649 C389.008978,88.1966449 366.507664,108.825297 360.066597,121.072516 C350.641975,138.992802 356.362988,163.495483 371.593953,170.443681 C384.264356,176.223695 439.530458,173.791077 452.930147,166.863656 L452.930147,166.863656 Z"/>
</svg>
